PathFileType	4	(X/Y/Z)	Walk2.trc
DataRate	CameraRate	NumFrames	NumMarkers	Units	OrigDataRate	OrigDataStartFrame	OrigNumFrames
200.000000	200.000000	4	67	mm	200.000000	871	955
Frame#	Times		LBHD		LowerBodyModelVer		LWRR		RLFC		LElbow		RTH2		RToe		LACR1		RMT5		C7		RTB2		LCAR		LUA1		RTB3		RMT1		RTB4		LWRU		RMMAL		LToe		RCAR		RCAL		LTH3		RASI		RFA1		LASI		PELOrigin		LLFC		RElbow		RElbowM		LPSI		RTH3		LTB2		RPSI		LHJC		MidPelvis		OPelvis		RHJC		SACR		XPelvis		YPelvis		ZPelvis		LFHD		LMMAL		LCAL		RBHD		RUA1		LMT5		T10		STRN		RACR1		LTH2		RMFC		RLMAL		RKJC		LLMAL		RFHD		CLAV		LTH4		RWRR		LTB1		LTH1		LTB3		LTB4		RTB1		LMT1		RTH1		RTH4
			X1	Y1	Z1	X2	Y2	Z2	X3	Y3	Z3	X4	Y4	Z4	X5	Y5	Z5	X6	Y6	Z6	X7	Y7	Z7	X8	Y8	Z8	X9	Y9	Z9	X10	Y10	Z10	X11	Y11	Z11	X12	Y12	Z12	X13	Y13	Z13	X14	Y14	Z14	X15	Y15	Z15	X16	Y16	Z16	X17	Y17	Z17	X18	Y18	Z18	X19	Y19	Z19	X20	Y20	Z20	X21	Y21	Z21	X22	Y22	Z22	X23	Y23	Z23	X24	Y24	Z24	X25	Y25	Z25	X26	Y26	Z26	X27	Y27	Z27	X28	Y28	Z28	X29	Y29	Z29	X30	Y30	Z30	X31	Y31	Z31	X32	Y32	Z32	X33	Y33	Z33	X34	Y34	Z34	X35	Y35	Z35	X36	Y36	Z36	X37	Y37	Z37	X38	Y38	Z38	X39	Y39	Z39	X40	Y40	Z40	X41	Y41	Z41	X42	Y42	Z42	X43	Y43	Z43	X44	Y44	Z44	X45	Y45	Z45	X46	Y46	Z46	X47	Y47	Z47	X48	Y48	Z48	X49	Y49	Z49	X50	Y50	Z50	X51	Y51	Z51	X52	Y52	Z52	X53	Y53	Z53	X54	Y54	Z54	X55	Y55	Z55	X56	Y56	Z56	X57	Y57	Z57	X58	Y58	Z58	X59	Y59	Z59	X60	Y60	Z60	X61	Y61	Z61	X62	Y62	Z62	X63	Y63	Z63	X64	Y64	Z64	X65	Y65	Z65	X66	Y66	Z66	X67	Y67	Z67

871	4.355	569.71	1591.3	-58.651	9	2014	4	452.29	800.75	-252.77	534.78	487.66	161.94	467.57	1082.7	-247.82	608.49	630.57	139.79	377.2	22	138.93	621.54	1394.8	-156.39	292.1	41.132	175.27	537.02	1464	13.707	414.83	285.41	160.72	443.53	944.01	-253.2	544.9	1202.7	-221.14	352.5	217.58	88.807	328.78	29.155	101.56	417.03	278.42	84.139	517.72	764.94	-243.21	252.11	133.27	69.2	934.93	65.583	-46.994	684.52	799.11	312.57	164.52	147.19	87.995	678.66	579.68	-112.9	613.78	979.66	172.22	585.22	926.74	321.95	628.9	1012.1	-125.57	621.34	995.86	23.323	683.14	518.63	-106.5	542.52	1083.1	318.82	501.44	1082.2	242.78	433.27	1026.4	-14.278	541.86	534.6	165.95	751.68	309.63	-94.827	427.9	1028.1	55.036	541.69	924.33	-91.211	525.96	1011.5	21.851	621.34	995.86	23.323	531.41	902.3	111.29	430.59	1027.2	20.379	700.21	982.74	25.899	634.09	1074.3	32.502	617.31	987.22	102.75	749.01	1621.9	-36.942	769.92	72.849	4.1085	684.77	32.284	-21.806	576.21	1592.1	78.171	616.45	1238.4	262.32	857.66	27.206	-100.39	452.66	1210.3	26.612	643.42	1179	29.556	519.89	1361.2	172.28	705.32	691.46	-88.838	498.71	463.18	39.252	228.76	149.46	147.05	516.74	475.42	100.59	743.58	59.957	-75.25	752.47	1623.9	37.973	679.85	1384.8	6.7643	651.85	668.95	-133.88	678.36	840.34	259.13	751.61	403.22	-24.503	624.01	756.38	-149.94	766.54	218.22	-24.598	758.45	310.6	-23.245	487.59	345.57	83.382	899.47	36.705	-27.663	548.33	723.23	195.98	548.68	627.53	183.79
872	4.36	574.76	1591.7	-59.603	9	2014	4	460.1	800.7	-253.8	545.11	487.43	161.64	474.29	1082.7	-248.79	617.19	630.99	138.83	378.37	22.496	138.62	626.94	1395.4	-157.25	295.44	43.864	174.93	542.11	1464.5	12.654	422.76	287.33	160.82	450.81	943.91	-254.21	551.23	1202.9	-221.96	359.56	220.14	89.232	330.4	29.89	101.35	425.03	279.97	84.408	525.62	765.1	-244.16	257.91	137.4	69.7	936.12	63.964	-47.09	687.57	799.15	311.73	170.68	153.66	88.448	684.43	580.59	-113.38	619.22	979.46	171.23	588.85	927.2	320.73	634.23	1013	-126.6	626.72	996.21	22.314	688.39	519.06	-107.15	546.71	1083.7	317.48	505.81	1083.1	241.31	438.41	1026.6	-15.05	551.84	534.34	165.62	754.81	309.34	-95.196	433.08	1028.1	54.263	547.12	924.94	-92.516	531.23	1011.8	20.96	626.72	996.21	22.314	536.91	902.16	110	435.74	1027.3	19.606	705.62	983.2	24.827	639.36	1074.6	31.773	622.72	987.28	101.71	754.05	1622.2	-37.894	770.46	72.626	4.1014	684.98	32.512	-21.879	581.25	1592.5	77.222	621.14	1238.9	261.14	857.95	26.543	-100.85	457.69	1210.7	25.6	648.67	1179.6	28.308	524.86	1361.7	171.33	710.78	692.46	-89.384	509.25	462.7	38.701	234.79	154.18	147.52	527.18	475.07	100.17	744.02	59.808	-75.29	757.52	1624.3	37.01	684.89	1385.3	5.892	657.47	669.76	-134.54	681.86	840.42	258.28	755.63	403.03	-24.993	629.51	757.11	-150.84	768.59	217.89	-24.786	761.48	310.34	-23.591	496.61	346.06	83.463	899.95	35.77	-27.775	556.21	723.23	194.91	557.57	627.4	183.1
873	4.365	579.76	1592.1	-60.522	9	2014	4	468	800.68	-254.85	555.51	487.28	161.38	481.02	1082.7	-249.78	625.95	631.46	137.91	380.03	23.161	138.27	632.29	1396	-158.08	299.27	46.733	174.61	547.12	1465	11.626	430.94	289.27	160.91	458.13	943.83	-255.23	557.55	1203.1	-222.77	366.91	222.71	89.636	332.44	30.815	101.11	433.26	281.55	84.655	533.64	765.3	-245.1	264.04	141.48	70.178	937.3	62.433	-47.155	690.59	799.2	310.86	177.2	159.98	88.941	689.92	581.37	-113.92	624.63	979.28	170.25	592.44	927.66	319.52	639.47	1013.8	-127.64	632.05	996.56	21.303	693.42	519.4	-107.78	550.87	1084.3	316.18	510.13	1083.9	239.89	443.53	1026.7	-15.814	561.87	534.14	165.33	757.86	309.03	-95.519	438.22	1028.1	53.483	552.46	925.52	-93.803	536.46	1012	20.069	632.05	996.56	21.303	542.37	902.02	108.77	440.88	1027.4	18.835	710.97	983.66	23.736	644.58	1075	31.025	628.1	987.35	100.67	759.05	1622.5	-38.812	770.94	72.42	4.1373	685.16	32.707	-21.932	586.25	1593	76.307	625.78	1239.3	259.98	858.23	25.993	-101.26	462.7	1211	24.602	653.87	1180.1	27.071	529.79	1362.2	170.39	716.16	693.3	-90.056	519.91	462.29	38.139	241.19	158.81	147.99	537.71	474.78	99.76	744.42	59.683	-75.298	762.52	1624.6	36.083	689.89	1385.8	5.0478	662.92	670.5	-135.25	685.32	840.52	257.43	759.53	402.81	-25.436	634.94	757.79	-151.75	770.56	217.56	-24.924	764.4	310.09	-23.89	505.81	346.62	83.531	900.4	34.965	-27.832	564.15	723.28	193.87	566.52	627.34	182.45
874	4.37	584.7	1592.6	-61.408	9	2014	4	476	800.68	-255.89	565.93	487.21	161.13	487.75	1082.7	-250.8	634.74	631.99	137.04	382.24	24.015	137.87	637.6	1396.6	-158.88	303.63	49.714	174.32	552.05	1465.5	10.624	439.36	291.2	160.97	465.49	943.76	-256.26	563.84	1203.4	-223.59	374.51	225.27	90.003	334.96	31.951	100.82	441.69	283.16	84.868	541.77	765.55	-246.04	270.48	145.5	70.625	938.45	60.976	-47.197	693.59	799.25	309.96	184.03	166.08	89.471	695.07	582	-114.53	630.03	979.12	169.3	596	928.11	318.31	644.62	1014.7	-128.7	637.33	996.91	20.296	698.21	519.66	-108.39	554.98	1085	314.9	514.39	1084.8	238.5	448.62	1026.9	-16.575	571.92	534.03	165.07	760.83	308.72	-95.794	443.34	1028.1	52.694	557.71	926.06	-95.063	541.65	1012.2	19.178	637.33	996.91	20.296	547.79	901.88	107.58	445.98	1027.5	18.06	716.26	984.11	22.633	649.74	1075.3	30.261	633.44	987.44	99.639	764	1622.9	-39.693	771.36	72.227	4.2123	685.32	32.874	-21.966	591.19	1593.4	75.427	630.37	1239.8	258.84	858.5	25.54	-101.64	467.67	1211.3	23.617	659.01	1180.7	25.854	534.66	1362.6	169.48	721.44	693.93	-90.87	530.63	461.98	37.566	247.95	163.34	148.45	548.28	474.59	99.349	744.79	59.58	-75.277	767.48	1624.9	35.193	694.85	1386.3	4.2298	668.17	671.13	-135.99	688.76	840.62	256.57	763.3	402.58	-25.826	640.3	758.41	-152.68	772.45	217.24	-25.016	767.23	309.82	-24.14	515.16	347.26	83.573	900.82	34.278	-27.837	572.13	723.39	192.85	575.51	627.33	181.84
